# xmcd
#
# Track frame offsets:
#	150
#	15840
#	28731
#	45369
#	58485
#	66750
#	79670
#	93165
#	101716
#	115169
#	125604
#	137360
#	148003
#	157712
#	169412
#	183673
#	195455
#	204986
#
# Disc length: 2854
#
# Revision: 3
# Processed by: cddbd v1.5.1PL0 Copyright (c) Steve Scherf et al.
# Submitted via: dBpowerAMP V4.0
# Normalized: r2:DSETVAR1
#
DISCID=ed0b2412
DTITLE=Various Artist - Shot of Country cd3
DYEAR=2000
DGENRE=Country
TTITLE0=Skeeter Davis - Desperado
TTITLE1=Lynn Anderson - Rose garden
TTITLE2=Willie Nelson - Pretty paper
TTITLE3=Kenny Rogers - Ruby
TTITLE4=Johnny Cash - Guess things happen that way
TTITLE5=Frankie Laine - Moonlight gambler
TTITLE6=Patti Page - Tennessee waltz
TTITLE7=Sandy Posey - Born a woman
TTITLE8=Billie Joe Spears - Fever
TTITLE9=Buck Owens - Excuse me
TTITLE10=Dave Duddley - Yellow rose of Texas
TTITLE11=Stonewall Jackson - Waterloo
TTITLE12=Pat Boone - Bernadine
TTITLE13=Gene Autry - Vaya con dios
TTITLE14=Bobby Helms - My special angel
TTITLE15=Freddy Fender - I'm leaving it up to you
TTITLE16=Charlie Rich - Lonely weekends
TTITLE17=The Harden Trio - Tippytoeing
EXTD=
EXTT0=
EXTT1=
EXTT2=
EXTT3=
EXTT4=
EXTT5=
EXTT6=
EXTT7=
EXTT8=
EXTT9=
EXTT10=
EXTT11=
EXTT12=
EXTT13=
EXTT14=
EXTT15=
EXTT16=
EXTT17=
PLAYORDER=
